<?xml version="1.0" encoding="iso-8859-1"?>
<!-- Generator: Adobe Illustrator 16.0.0, SVG Export Plug-In . SVG Version: 6.00 Build 0)  -->
<!DOCTYPE svg PUBLIC "-//W3C//DTD SVG 1.1//EN" "http://www.w3.org/Graphics/SVG/1.1/DTD/svg11.dtd">
<svg version="1.1" id="Layer_1" xmlns="http://www.w3.org/2000/svg" xmlns:xlink="http://www.w3.org/1999/xlink" x="0px" y="0px"
	 width="512px" height="512px" viewBox="0 0 512 512" style="enable-background:new 0 0 512 512;" xml:space="preserve">
<g>
	<circle cx="120.297" cy="136" r="39.081"/>
	<circle cx="120.297" cy="256" r="39.081"/>
	<circle cx="120.297" cy="376" r="39.081"/>
	<g>
		<path d="M425.785,101.75H194.797c-2.757,0-5,2.243-5,5v58.5c0,2.757,2.243,5,5,5h230.988c2.757,0,5-2.243,5-5v-58.5
			C430.785,103.993,428.542,101.75,425.785,101.75z"/>
		<path d="M425.785,221.75H194.797c-2.757,0-5,2.243-5,5v58.5c0,2.757,2.243,5,5,5h230.988c2.757,0,5-2.243,5-5v-58.5
			C430.785,223.993,428.542,221.75,425.785,221.75z"/>
		<path d="M425.785,341.75H194.797c-2.757,0-5,2.243-5,5v58.5c0,2.757,2.243,5,5,5h230.988c2.757,0,5-2.243,5-5v-58.5
			C430.785,343.993,428.542,341.75,425.785,341.75z"/>
	</g>
</g>
</svg>
